<svg width="98" height="14" viewBox="0 0 98 14" fill="none" xmlns="http://www.w3.org/2000/svg">
<path d="M5.134 13.216C8.734 13.216 10.48 11.416 10.48 9.31C10.48 4.684 3.154 6.286 3.154 3.964C3.154 3.172 3.82 2.524 5.548 2.524C6.664 2.524 7.87 2.848 9.04 3.514L9.94 1.3C8.77 0.561999 7.15 0.184 5.566 0.184C1.984 0.184 0.256 1.966 0.256 4.108C0.256 8.788 7.582 7.168 7.582 9.526C7.582 10.3 6.88 10.876 5.152 10.876C3.64 10.876 2.056 10.336 0.994 9.562L0.00400002 11.758C1.12 12.622 3.136 13.216 5.134 13.216ZM15.3705 10.66V7.744H21.2205V5.476H15.3705V2.74H21.9945V0.399999H12.4725V13H22.2285V10.66H15.3705ZM27.4467 10.66V7.744H33.2967V5.476H27.4467V2.74H34.0707V0.399999H24.5487V13H34.3047V10.66H27.4467ZM47.7849 13L44.9589 8.95C46.5969 8.248 47.5509 6.862 47.5509 4.972C47.5509 2.146 45.4449 0.399999 42.0789 0.399999H36.6249V13H39.5409V9.49H42.0789H42.2229L44.6529 13H47.7849ZM44.5989 4.972C44.5989 6.34 43.6989 7.168 41.9169 7.168H39.5409V2.776H41.9169C43.6989 2.776 44.5989 3.586 44.5989 4.972ZM59.1132 6.448C60.1392 5.908 60.7872 4.936 60.7872 3.676C60.7872 1.714 59.1672 0.399999 56.0172 0.399999H49.8612V13H56.3772C59.6892 13 61.4172 11.74 61.4172 9.562C61.4172 7.978 60.5172 6.898 59.1132 6.448ZM55.6572 2.596C57.0792 2.596 57.8532 3.082 57.8532 4.072C57.8532 5.062 57.0792 5.566 55.6572 5.566H52.7592V2.596H55.6572ZM56.1612 10.804H52.7592V7.69H56.1612C57.6732 7.69 58.4832 8.194 58.4832 9.256C58.4832 10.336 57.6732 10.804 56.1612 10.804ZM63.6249 13H66.5409V0.399999H63.6249V13ZM72.1411 13H75.0571V2.776H79.0891V0.399999H68.1091V2.776H72.1411V13ZM91.3357 0.346C87.7177 0.346 84.9637 3.154 84.9637 6.7C84.9637 10.246 87.7177 13.054 91.2997 13.054C94.8817 13.054 97.6717 10.246 97.6717 6.664C97.6717 3.082 94.9537 0.346 91.3357 0.346ZM91.2997 11.884C88.3657 11.884 86.2057 9.616 86.2057 6.7C86.2057 3.784 88.3657 1.516 91.3357 1.516C94.3057 1.516 96.4477 3.73 96.4477 6.664C96.4477 9.598 94.2337 11.884 91.2997 11.884ZM94.6477 5.692C94.6477 4.18 93.5137 3.208 91.6057 3.208H88.5637V10.192H90.4357V8.176H91.6057H91.6777L92.9917 10.192H94.8637L93.3337 7.852C94.1797 7.456 94.6477 6.718 94.6477 5.692ZM90.4177 6.772V4.594H91.4797C92.3257 4.594 92.8117 4.99 92.8117 5.692C92.8117 6.376 92.3257 6.772 91.4797 6.772H90.4177Z" fill="white"/>
</svg>
